PathFileType	4	(X/Y/Z)	 New Session 104.trc
DataRate	CameraRate	NumFrames	NumMarkers	Units	OrigDataRate	OrigDataStartFrame	OrigNumFrames
100	100	29	14	m	100	496	660
Frame#	Time	C7			T8			IJ			PX			AA			AC			AI			TS			SC			GH			LE			ME			US			RS			
		X1	Y1	Z1	X2	Y2	Z2	X3	Y3	Z3	X4	Y4	Z4	X5	Y5	Z5	X6	Y6	Z6	X7	Y7	Z7	X8	Y8	Z8	X9	Y9	Z9	X10	Y10	Z10	X11	Y11	Z11	X12	Y12	Z12	X13	Y13	Z13	X14	Y14	Z14	
496	4.9600	0.021293	0.098325	0.156689	0.021592	-0.117767	0.217558	-0.003250	0.003544	-0.008617	-0.008727	-0.138142	-0.081283	0.225893	-0.002837	0.107757	0.170043	0.043200	0.044638	0.109815	0.019932	0.180720	0.107374	-0.097635	0.209213	0.021718	0.010912	-0.004318	0.234292	0.009175	0.065530	0.251828	-0.288430	0.003030	0.165100	-0.303733	-0.021233	0.261243	-0.556081	-0.082539	0.326005	-0.527568	-0.112951	
497	4.9700	0.020668	0.098363	0.156886	0.021539	-0.117810	0.217881	-0.003607	0.003608	-0.008278	-0.009159	-0.138116	-0.080957	0.225569	-0.002730	0.107743	0.169596	0.043282	0.044727	0.109519	0.019978	0.180956	0.107283	-0.097643	0.209390	0.021334	0.010845	-0.003958	0.233918	0.009288	0.065502	0.252120	-0.288252	0.002533	0.165300	-0.303493	-0.023729	0.262204	-0.555616	-0.083733	0.326845	-0.526775	-0.114095	
498	4.9800	0.020052	0.098393	0.157083	0.021423	-0.117845	0.218191	-0.003878	0.003655	-0.007960	-0.009595	-0.138104	-0.080612	0.225209	-0.002653	0.107900	0.169241	0.043439	0.044937	0.109132	0.019942	0.181251	0.107117	-0.097686	0.209594	0.021039	0.010799	-0.003636	0.233551	0.009402	0.065704	0.252352	-0.288048	0.002138	0.165364	-0.303134	-0.026685	0.263071	-0.555108	-0.084893	0.327618	-0.525962	-0.115137	
499	4.9900	0.019419	0.098429	0.157282	0.021242	-0.117874	0.218475	-0.004064	0.003667	-0.007670	-0.009993	-0.138073	-0.080292	0.224801	-0.002610	0.108195	0.168979	0.043675	0.045266	0.108677	0.019840	0.181606	0.106868	-0.097754	0.209810	0.020847	0.010782	-0.003380	0.233207	0.009521	0.066097	0.252516	-0.287799	0.001846	0.165322	-0.302731	-0.029647	0.263844	-0.554575	-0.086006	0.328316	-0.525150	-0.116091	
500	5.0000	0.018766	0.098478	0.157469	0.021002	-0.117900	0.218740	-0.004183	0.003646	-0.007407	-0.010322	-0.137994	-0.080024	0.224356	-0.002584	0.108591	0.168761	0.043956	0.045706	0.108198	0.019697	0.182015	0.106541	-0.097838	0.210035	0.020723	0.010771	-0.003172	0.232863	0.009642	0.066620	0.252617	-0.287499	0.001630	0.165212	-0.302359	-0.032160	0.264531	-0.554035	-0.087054	0.328933	-0.524359	-0.116977	
501	5.0100	0.018107	0.098541	0.157628	0.020722	-0.117929	0.219007	-0.004260	0.003611	-0.007165	-0.010597	-0.137871	-0.079795	0.223903	-0.002547	0.109054	0.168515	0.044220	0.046230	0.107740	0.019546	0.182465	0.106158	-0.097928	0.210276	0.020615	0.010744	-0.002963	0.232499	0.009772	0.067209	0.252688	-0.287166	0.001449	0.165077	-0.302078	-0.033856	0.265138	-0.553504	-0.088019	0.329468	-0.523602	-0.117817	
502	5.0200	0.017427	0.098624	0.157754	0.020423	-0.117963	0.219292	-0.004322	0.003595	-0.006920	-0.010851	-0.137737	-0.079567	0.223468	-0.002485	0.109556	0.168204	0.044437	0.046793	0.107298	0.019416	0.182931	0.105755	-0.098009	0.210549	0.020486	0.010691	-0.002701	0.232120	0.009918	0.067809	0.252767	-0.286828	0.001273	0.164956	-0.301922	-0.034526	0.265671	-0.552999	-0.088890	0.329921	-0.522891	-0.118624	
503	5.0300	0.016702	0.098734	0.157865	0.020125	-0.118004	0.219597	-0.004401	0.003624	-0.006638	-0.011095	-0.137619	-0.079320	0.223063	-0.002406	0.110067	0.167846	0.044610	0.047352	0.106855	0.019326	0.183386	0.105373	-0.098076	0.210866	0.020331	0.010630	-0.002372	0.231752	0.010086	0.068376	0.252862	-0.286507	0.001092	0.164884	-0.301883	-0.034200	0.266129	-0.552531	-0.089661	0.330292	-0.522236	-0.119395	
504	5.0400	0.015947	0.098872	0.157979	0.019844	-0.118048	0.219919	-0.004512	0.003696	-0.006295	-0.011317	-0.137522	-0.079058	0.222692	-0.002334	0.110558	0.167479	0.044764	0.047884	0.106416	0.019270	0.183815	0.105040	-0.098125	0.211224	0.020206	0.010630	-0.002013	0.231413	0.010267	0.068900	0.252954	-0.286217	0.000909	0.164883	-0.301903	-0.033208	0.266508	-0.552106	-0.090339	0.330575	-0.521638	-0.120117	
505	5.0500	0.015199	0.099017	0.158101	0.019591	-0.118094	0.220255	-0.004640	0.003788	-0.005895	-0.011499	-0.137440	-0.078788	0.222349	-0.002279	0.111022	0.167122	0.044911	0.048398	0.105990	0.019224	0.184222	0.104769	-0.098165	0.211605	0.020149	0.010739	-0.001661	0.231100	0.010450	0.069404	0.253023	-0.285962	0.000736	0.165002	-0.301920	-0.031882	0.266804	-0.551723	-0.090938	0.330772	-0.521095	-0.120771	
506	5.0600	0.014493	0.099133	0.158231	0.019363	-0.118142	0.220596	-0.004770	0.003872	-0.005473	-0.011647	-0.137365	-0.078507	0.222025	-0.002240	0.111470	0.166770	0.045045	0.048909	0.105575	0.019160	0.184620	0.104544	-0.098205	0.211986	0.020094	0.010892	-0.001276	0.230795	0.010629	0.069915	0.253058	-0.285739	0.000589	0.165358	-0.301955	-0.030065	0.267014	-0.551378	-0.091468	0.330891	-0.520600	-0.121342	
507	5.0700	0.013853	0.099201	0.158370	0.019152	-0.118192	0.220939	-0.004897	0.003932	-0.005071	-0.011767	-0.137304	-0.078203	0.221712	-0.002208	0.111910	0.166411	0.045141	0.049421	0.105169	0.019072	0.185017	0.104337	-0.098257	0.212341	0.019989	0.011007	-0.000843	0.230489	0.010805	0.070428	0.253050	-0.285534	0.000474	0.166017	-0.302012	-0.027728	0.267141	-0.551062	-0.091940	0.330945	-0.520148	-0.121824	
508	5.0800	0.013280	0.099237	0.158512	0.018944	-0.118244	0.221275	-0.005019	0.003965	-0.004715	-0.011861	-0.137275	-0.077874	0.221413	-0.002167	0.112336	0.166040	0.045185	0.049917	0.104780	0.018972	0.185406	0.104124	-0.098325	0.212663	0.019869	0.011073	-0.000414	0.230186	0.010980	0.070912	0.252999	-0.285335	0.000395	0.166879	-0.302069	-0.025088	0.267192	-0.550770	-0.092358	0.330945	-0.519737	-0.122226	
509	5.0900	0.012759	0.099270	0.158653	0.018730	-0.118298	0.221602	-0.005139	0.003975	-0.004403	-0.011937	-0.137288	-0.077530	0.221134	-0.002104	0.112734	0.165670	0.045202	0.050377	0.104420	0.018886	0.185773	0.103896	-0.098400	0.212958	0.019782	0.011129	-0.000051	0.229897	0.011152	0.071337	0.252913	-0.285142	0.000347	0.167585	-0.302078	-0.022720	0.267175	-0.550499	-0.092724	0.330897	-0.519369	-0.122566	
510	5.1000	0.012260	0.099317	0.158791	0.018508	-0.118353	0.221919	-0.005260	0.003975	-0.004112	-0.012002	-0.137330	-0.077189	0.220869	-0.002025	0.113095	0.165321	0.045243	0.050791	0.104096	0.018835	0.186108	0.103663	-0.098465	0.213241	0.019724	0.011197	0.000240	0.229631	0.011312	0.071704	0.252809	-0.284954	0.000325	0.167646	-0.302002	-0.021389	0.267101	-0.550252	-0.093043	0.330801	-0.519044	-0.122866	
511	5.1100	0.011761	0.099376	0.158917	0.018285	-0.118403	0.222229	-0.005385	0.003986	-0.003820	-0.012056	-0.137364	-0.076873	0.220606	-0.001941	0.113425	0.165000	0.045336	0.051164	0.103803	0.018825	0.186411	0.103437	-0.098499	0.213526	0.019648	0.011267	0.000505	0.229388	0.011450	0.072035	0.252692	-0.284773	0.000322	0.166947	-0.301876	-0.021377	0.266983	-0.550033	-0.093318	0.330660	-0.518760	-0.123142	
512	5.1200	0.011266	0.099442	0.159023	0.018074	-0.118441	0.222539	-0.005501	0.004010	-0.003524	-0.012112	-0.137361	-0.076601	0.220332	-0.001869	0.113738	0.164704	0.045460	0.051517	0.103523	0.018849	0.186695	0.103229	-0.098494	0.213818	0.019537	0.011324	0.000778	0.229156	0.011566	0.072360	0.252554	-0.284602	0.000333	0.165874	-0.301758	-0.022201	0.266830	-0.549843	-0.093552	0.330481	-0.518513	-0.123402	
513	5.1300	0.010792	0.099514	0.159110	0.017884	-0.118463	0.222852	-0.005598	0.004039	-0.003235	-0.012190	-0.137318	-0.076377	0.220044	-0.001815	0.114051	0.164423	0.045573	0.051864	0.103241	0.018887	0.186980	0.103043	-0.098456	0.214113	0.019414	0.011368	0.001059	0.228922	0.011671	0.072700	0.252391	-0.284451	0.000359	0.164976	-0.301672	-0.023067	0.266652	-0.549683	-0.093747	0.330268	-0.518297	-0.123645	
514	5.1400	0.010351	0.099590	0.159184	0.017717	-0.118468	0.223172	-0.005685	0.004059	-0.002966	-0.012315	-0.137272	-0.076183	0.219752	-0.001776	0.114370	0.164155	0.045652	0.052210	0.102957	0.018927	0.187269	0.102877	-0.098400	0.214403	0.019299	0.011403	0.001331	0.228682	0.011772	0.073059	0.252225	-0.284328	0.000401	0.164513	-0.301611	-0.023533	0.266453	-0.549544	-0.093908	0.330032	-0.518103	-0.123864	
515	5.1500	0.009941	0.099667	0.159255	0.017568	-0.118456	0.223500	-0.005779	0.004067	-0.002721	-0.012484	-0.137264	-0.075977	0.219474	-0.001739	0.114695	0.163900	0.045699	0.052554	0.102683	0.018964	0.187546	0.102725	-0.098338	0.214690	0.019193	0.011426	0.001586	0.228441	0.011873	0.073426	0.252085	-0.284234	0.000455	0.164404	-0.301565	-0.023623	0.266240	-0.549418	-0.094037	0.329779	-0.517925	-0.124052	
516	5.1600	0.009554	0.099742	0.159341	0.017429	-0.118432	0.223832	-0.005891	0.004064	-0.002504	-0.012644	-0.137297	-0.075741	0.219226	-0.001697	0.115021	0.163660	0.045730	0.052887	0.102426	0.018996	0.187794	0.102578	-0.098274	0.214979	0.019088	0.011436	0.001820	0.228215	0.011968	0.073781	0.251959	-0.284164	0.000513	0.164439	-0.301520	-0.023562	0.266016	-0.549296	-0.094136	0.329516	-0.517761	-0.124203	
517	5.1700	0.009185	0.099815	0.159451	0.017293	-0.118399	0.224159	-0.006025	0.004057	-0.002315	-0.012770	-0.137343	-0.075499	0.219010	-0.001647	0.115342	0.163437	0.045761	0.053200	0.102185	0.019026	0.188011	0.102432	-0.098206	0.215281	0.018986	0.011435	0.002027	0.228015	0.012055	0.074111	0.251814	-0.284109	0.000572	0.164454	-0.301466	-0.023521	0.265790	-0.549174	-0.094209	0.329253	-0.517607	-0.124315	
518	5.1800	0.008835	0.099884	0.159580	0.017158	-0.118363	0.224465	-0.006178	0.004059	-0.002150	-0.012877	-0.137373	-0.075275	0.218816	-0.001592	0.115654	0.163235	0.045803	0.053483	0.101959	0.019062	0.188209	0.102289	-0.098133	0.215601	0.018889	0.011436	0.002208	0.227844	0.012137	0.074417	0.251645	-0.284060	0.000638	0.164399	-0.301401	-0.023521	0.265569	-0.549051	-0.094259	0.328999	-0.517461	-0.124392	
519	5.1900	0.008508	0.099949	0.159697	0.017027	-0.118328	0.224736	-0.006348	0.004085	-0.001991	-0.012982	-0.137375	-0.075078	0.218630	-0.001535	0.115949	0.163054	0.045858	0.053736	0.101755	0.019113	0.188403	0.102153	-0.098057	0.215933	0.018796	0.011451	0.002376	0.227697	0.012220	0.074713	0.251486	-0.283998	0.000720	0.164312	-0.301340	-0.023475	0.265361	-0.548928	-0.094287	0.328765	-0.517320	-0.124439	
520	5.2000	0.008213	0.100006	0.159776	0.016901	-0.118297	0.224978	-0.006525	0.004135	-0.001824	-0.013089	-0.137353	-0.074898	0.218444	-0.001478	0.116223	0.162889	0.045920	0.053970	0.101580	0.019187	0.188597	0.102028	-0.097986	0.216255	0.018704	0.011489	0.002548	0.227570	0.012313	0.075001	0.251365	-0.283908	0.000825	0.164234	-0.301289	-0.023319	0.265172	-0.548804	-0.094296	0.328557	-0.517184	-0.124460	
521	5.2100	0.007959	0.100072	0.159844	0.016780	-0.118269	0.225206	-0.006690	0.004197	-0.001636	-0.013191	-0.137316	-0.074720	0.218260	-0.001417	0.116477	0.162735	0.045982	0.054202	0.101434	0.019277	0.188790	0.101911	-0.097925	0.216533	0.018616	0.011544	0.002732	0.227452	0.012415	0.075268	0.251273	-0.283792	0.000948	0.164164	-0.301230	-0.023142	0.265007	-0.548681	-0.094287	0.328382	-0.517052	-0.124460	
522	5.2200	0.007746	0.100152	0.159934	0.016661	-0.118241	0.225432	-0.006825	0.004251	-0.001430	-0.013281	-0.137275	-0.074534	0.218082	-0.001348	0.116713	0.162588	0.046040	0.054440	0.101307	0.019366	0.188980	0.101797	-0.097876	0.216747	0.018540	0.011598	0.002932	0.227328	0.012522	0.075504	0.251189	-0.283664	0.001080	0.164058	-0.301115	-0.023221	0.264872	-0.548558	-0.094263	0.328241	-0.516923	-0.124442	
523	5.2300	0.007576	0.100230	0.160053	0.016539	-0.118209	0.225661	-0.006919	0.004287	-0.001214	-0.013345	-0.137239	-0.074330	0.217921	-0.001270	0.116933	0.162448	0.046096	0.054686	0.101189	0.019444	0.189170	0.101692	-0.097835	0.216918	0.018488	0.011633	0.003147	0.227195	0.012630	0.075718	0.251103	-0.283537	0.001213	0.163853	-0.300884	-0.023878	0.264770	-0.548437	-0.094226	0.328135	-0.516794	-0.124406	
524	5.2400	0.007440	0.100298	0.160201	0.016412	-0.118170	0.225893	-0.006969	0.004306	-0.001003	-0.013377	-0.137214	-0.074107	0.217800	-0.001175	0.117142	0.162316	0.046152	0.054935	0.101077	0.019508	0.189360	0.101601	-0.097796	0.217077	0.018460	0.011652	0.003374	0.227065	0.012743	0.075930	0.251021	-0.283422	0.001344	0.163520	-0.300521	-0.025169	0.264706	-0.548318	-0.094176	0.328065	-0.516662	-0.124356	
